<svg xmlns="http://www.w3.org/2000/svg" viewBox="0 0 640 640">
<defs><linearGradient id="sky" x2="0" y2="1"><stop stop-color="#7b8a79"/><stop offset="1" stop-color="#263d2f"/></linearGradient><radialGradient id="light"><stop stop-color="#d4d3a9" stop-opacity=".4"/><stop offset="1" stop-color="#d4d3a9" stop-opacity="0"/></radialGradient><filter id="soft"><feGaussianBlur stdDeviation="8"/></filter></defs>
<rect width="640" height="640" fill="url(#sky)"/><circle cx="387" cy="145" r="155" fill="url(#light)"/><circle cx="387" cy="145" r="53" fill="#c2c8a2" opacity=".37"/>
<path d="M0 390 72 310 117 350 210 204 304 344 354 292 476 372 547 244 640 358V640H0Z" fill="#536552" opacity=".65"/><path d="m155 310 54-105 58 95-40-36-18 13-13-8Z" fill="#c2c8af" opacity=".14"/>
<path d="M0 454 83 380 172 444 241 387 331 455 428 373 522 456 588 397 640 439V640H0Z" fill="#324d37"/>
<path d="M0 512Q102 459 203 515T438 513T640 486V640H0Z" fill="#243e2c"/>
<path d="M454 640q-24-116-29-202t-44-120m43 126 63-84m-58 72-78-40m137-32 18-50" fill="none" stroke="#263c29" stroke-width="10"/>
<g fill="#344c32"><ellipse cx="383" cy="329" rx="63" ry="23"/><ellipse cx="359" cy="385" rx="78" ry="23"/><ellipse cx="494" cy="349" rx="83" ry="25"/><ellipse cx="507" cy="314" rx="44" ry="19"/><ellipse cx="447" cy="425" rx="54" ry="17"/></g>
<path d="M52 640q8-68 5-99T30 485m27 59 38-31m-40 64-35-25" fill="none" stroke="#1e3626" stroke-width="5"/><g fill="#213b27"><ellipse cx="29" cy="485" rx="42" ry="16"/><ellipse cx="94" cy="511" rx="49" ry="17"/><ellipse cx="24" cy="551" rx="34" ry="14"/></g>
<path d="M0 508q190-14 328 11t312-17" fill="none" stroke="#b0bca1" stroke-width="14" opacity=".07" filter="url(#soft)"/>
</svg>
